<?xml version="1.0" encoding="UTF-8" standalone="no"?>
<svg
   viewBox="0 0 939 254.99999"
   height="255"
   width="939"
   xml:space="preserve"
   id="svg2"
   version="1.1"
   xmlns:xlink="http://www.w3.org/1999/xlink"
   xmlns="http://www.w3.org/2000/svg"
   xmlns:svg="http://www.w3.org/2000/svg"
   xmlns:rdf="http://www.w3.org/1999/02/22-rdf-syntax-ns#"
   xmlns:cc="http://creativecommons.org/ns#"
   xmlns:dc="http://purl.org/dc/elements/1.1/"><metadata
     id="metadata8"><rdf:RDF><cc:Work
         rdf:about=""><dc:format>image/svg+xml</dc:format><dc:type
           rdf:resource="http://purl.org/dc/dcmitype/StillImage" /></cc:Work></rdf:RDF></metadata><defs
     id="defs6"><linearGradient
       id="linearGradient17"><stop
         style="stop-color:#008080;stop-opacity:1;"
         offset="0"
         id="stop17" /><stop
         style="stop-color:#008080;stop-opacity:0;"
         offset="1"
         id="stop18" /></linearGradient><linearGradient
       id="linearGradient4"><stop
         style="stop-color:#190ee7;stop-opacity:1;"
         offset="0"
         id="stop4" /><stop
         style="stop-color:#ff66e7;stop-opacity:0;"
         offset="1"
         id="stop5" /></linearGradient><linearGradient
       id="swatch3"><stop
         style="stop-color:#ff66e7;stop-opacity:1;"
         offset="0"
         id="stop3" /></linearGradient><linearGradient
       xlink:href="#linearGradient17"
       id="linearGradient18"
       x1="280.56985"
       y1="71.855431"
       x2="764.5697"
       y2="71.855431"
       gradientUnits="userSpaceOnUse"
       gradientTransform="translate(116.54078,53.569009)" /></defs><path
     id="Logo_00000070798138601301674650000004384043577950950296_"
     class="st0"
     d="m 248.22936,98.124068 v 19.497692 h 36.15625 v 17.32714 h -36.15625 v 19.78541 h 41.31595 v 17.32397 H 230.18312 V 80.799928 h 59.36219 v 17.32414 z M 101.6898,173.26617 c 13.99871,0 26.85819,-6.29995 34.85505,-18.3257 l -13.69637,-11.67153 c -4.02996,6.39366 -11.05361,12.09018 -20.67331,12.09018 -14.289689,0 -25.483419,-12.73006 -25.483419,-28.92188 0,-16.19184 11.19373,-28.921872 25.483419,-28.921872 9.6197,0 16.64335,5.696502 20.67331,12.090162 L 136.54485,97.934008 C 128.54799,85.908248 115.68851,79.608308 101.6898,79.608308 77.955011,79.608308 58,100.377 58,126.43724 c 0,26.06023 19.955011,46.82893 43.6898,46.82893 z m 87.33549,-92.466242 -18.74033,2e-5 32.99242,91.258312 h 18.88988 z m 6.1531,70.312282 h -31.63446 l -7.60873,20.94605 h -18.69616 l 19.35331,-53.83076 z"
     style="fill:#2969f2;stroke-width:0.417126" /><text
     xml:space="preserve"
     style="font-style:normal;font-variant:normal;font-weight:normal;font-stretch:normal;font-size:192px;font-family:sans-serif;-inkscape-font-specification:'sans-serif, Normal';font-variant-ligatures:normal;font-variant-caps:normal;font-variant-numeric:normal;font-variant-east-asian:normal;text-align:start;writing-mode:lr-tb;direction:ltr;text-anchor:start;opacity:1;fill:url(#linearGradient18);fill-opacity:1;stroke:#000000;stroke-width:4;stroke-dasharray:none;stroke-opacity:1"
     x="380.48663"
     y="193.96843"
     id="text6"><tspan
       x="380.48663"
       y="193.96843"
       id="tspan7"
       style="fill:url(#linearGradient18);fill-opacity:1;stroke:#000000;stroke-width:4;stroke-dasharray:none;stroke-opacity:1">ECMS</tspan></text></svg>
